<?xml version="1.0" encoding="UTF-8" standalone="no"?>
<svg
   width="16"
   height="16"
   version="1.1"
   id="svg1"
   sodipodi:docname="Flip.svg"
   inkscape:version="1.4.3 (0d15f75042, 2025-12-25)"
   xmlns:inkscape="http://www.inkscape.org/namespaces/inkscape"
   xmlns:sodipodi="http://sodipodi.sourceforge.net/DTD/sodipodi-0.dtd"
   xmlns="http://www.w3.org/2000/svg"
   xmlns:svg="http://www.w3.org/2000/svg">
  <defs
     id="defs1" />
  <sodipodi:namedview
     id="namedview1"
     pagecolor="#505050"
     bordercolor="#eeeeee"
     borderopacity="1"
     inkscape:showpageshadow="0"
     inkscape:pageopacity="0"
     inkscape:pagecheckerboard="0"
     inkscape:deskcolor="#505050"
     inkscape:zoom="24.90625"
     inkscape:cx="3.6135508"
     inkscape:cy="10.459222"
     inkscape:window-width="1920"
     inkscape:window-height="1008"
     inkscape:window-x="0"
     inkscape:window-y="0"
     inkscape:window-maximized="1"
     inkscape:current-layer="svg1" />
  <g
     id="g19"
     transform="matrix(0.85546978,0,0,0.85546978,1.0026934,1.2935525)">
    <path
       d="m 6.3816387,2.8393977 c -0.2357094,-0.00591 -0.4643645,0.071403 -0.6484375,0.21875 l -5.00000005,4 c -0.4989609,0.4003069 -0.4989609,1.16024 0,1.5605469 L 2.6707011,10.169476 C 2.6778971,9.7314946 2.8643417,9.2962563 3.2292949,9.0034602 L 5.7683574,6.9702571 h 3.2324219 v 0.6269531 c -1.665e-4,0.4435302 0.5131442,0.6893159 0.859375,0.4121094 L 12.502732,5.8940852 c 0.263814,-0.2116536 0.263814,-0.6125651 0,-0.8242188 L 9.8601543,2.9546321 C 9.7628297,2.8767257 9.6410306,2.8362716 9.5164043,2.8393977 9.2299809,2.8465601 9.0012627,3.0802289 9.0007793,3.3667415 V 3.9936946 H 7.3582012 v -0.15625 C 7.3572868,3.2955546 6.9233602,2.8529437 6.3816387,2.8393977 Z"
       style="fill:#e0e0e0"
       id="path19" />
    <path
       d="m 13.686326,5.5073664 c -0.0067,0.4381154 -0.193135,0.8728143 -0.558594,1.1660157 L 10.590623,8.7065852 H 7.3582012 V 8.0796321 C 7.3577178,7.7931195 7.1289996,7.5594483 6.8425762,7.5522883 c -0.015578,-3.907e-4 -0.031427,-9.591e-4 -0.046875,0 -0.1081336,0.00671 -0.2117157,0.047067 -0.296875,0.1152344 L 3.856248,9.7827571 c -0.263814,0.2116536 -0.263814,0.6125649 0,0.8242189 l 2.6425782,2.115235 c 0.3462308,0.277207 0.8595415,0.03142 0.859375,-0.41211 v -0.626953 h 1.6425781 v 0.154297 c -3.148e-4,0.838862 0.9701632,1.305539 1.6249997,0.78125 l 5,-4.0000004 c 0.498961,-0.4003069 0.498961,-1.16024 0,-1.5605469 z"
       style="fill:#e0e0e0;stroke-width:2.54321"
       id="path18" />
  </g>
</svg>
