<?xml version="1.0" encoding="UTF-8" standalone="no"?>
<svg
   width="16"
   height="16"
   version="1.1"
   id="svg1"
   sodipodi:docname="IgnoreVisup.svg"
   inkscape:version="1.4.3 (0d15f75042, 2025-12-25)"
   xmlns:inkscape="http://www.inkscape.org/namespaces/inkscape"
   xmlns:sodipodi="http://sodipodi.sourceforge.net/DTD/sodipodi-0.dtd"
   xmlns="http://www.w3.org/2000/svg"
   xmlns:svg="http://www.w3.org/2000/svg">
  <defs
     id="defs1" />
  <sodipodi:namedview
     id="namedview1"
     pagecolor="#505050"
     bordercolor="#eeeeee"
     borderopacity="1"
     inkscape:showpageshadow="0"
     inkscape:pageopacity="0"
     inkscape:pagecheckerboard="0"
     inkscape:deskcolor="#505050"
     inkscape:zoom="34.957592"
     inkscape:cx="8.8535848"
     inkscape:cy="9.3398883"
     inkscape:window-width="1920"
     inkscape:window-height="1008"
     inkscape:window-x="0"
     inkscape:window-y="0"
     inkscape:window-maximized="1"
     inkscape:current-layer="svg1" />
  <circle
     style="fill:#00ff00;stroke:none;stroke-width:0.0474074;fill-opacity:1"
     id="path3"
     cx="8"
     cy="8"
     r="3.7925949" />
  <path
     d="m 8,1.390625 c -1.4601495,0 -2.8119772,0.4791491 -3.9082031,1.2871094 C 3.5524869,3.0752264 3.0752264,3.5524869 2.6777344,4.0917969 1.8697741,5.1880228 1.390625,6.5398505 1.390625,8 c 0,3.638648 2.9707267,6.609375 6.609375,6.609375 1.4601495,0 2.811977,-0.479149 3.908203,-1.287109 0.53931,-0.397492 1.016571,-0.874753 1.414063,-1.414063 C 14.130226,10.811977 14.609375,9.4601495 14.609375,8 14.609375,4.3613517 11.638648,1.390625 8,1.390625 Z m 0,2 c 2.557768,0 4.609375,2.0516069 4.609375,4.609375 0,0.9146053 -0.262807,1.7640086 -0.716797,2.478516 L 5.5214844,4.1074219 C 6.2359914,3.6534321 7.0853948,3.390625 8,3.390625 Z M 4.1074219,5.5214844 10.478516,11.892578 C 9.7640086,12.346568 8.9146053,12.609375 8,12.609375 5.4422319,12.609375 3.390625,10.557768 3.390625,8 c 0,-0.9146052 0.2628071,-1.7640086 0.7167969,-2.4785156 z"
     style="baseline-shift:baseline;display:inline;overflow:visible;opacity:1;vector-effect:none;fill:#e0e0e0;enable-background:accumulate;stop-color:#000000;stop-opacity:1"
     id="path4" />
</svg>
