<?xml version="1.0" encoding="UTF-8" standalone="no"?>
<svg
   width="16"
   height="16"
   version="1.1"
   id="svg1"
   sodipodi:docname="Quick.svg"
   inkscape:version="1.4.3 (0d15f75042, 2025-12-25)"
   xmlns:inkscape="http://www.inkscape.org/namespaces/inkscape"
   xmlns:sodipodi="http://sodipodi.sourceforge.net/DTD/sodipodi-0.dtd"
   xmlns="http://www.w3.org/2000/svg"
   xmlns:svg="http://www.w3.org/2000/svg">
  <defs
     id="defs1" />
  <sodipodi:namedview
     id="namedview1"
     pagecolor="#505050"
     bordercolor="#eeeeee"
     borderopacity="1"
     inkscape:showpageshadow="0"
     inkscape:pageopacity="0"
     inkscape:pagecheckerboard="0"
     inkscape:deskcolor="#505050"
     inkscape:zoom="24.90625"
     inkscape:cx="11.74404"
     inkscape:cy="12.988708"
     inkscape:window-width="1920"
     inkscape:window-height="1008"
     inkscape:window-x="0"
     inkscape:window-y="0"
     inkscape:window-maximized="1"
     inkscape:current-layer="svg1" />
  <path
     d="M 7.2773437,2.2314454 V 3.3232422 C 6.8261533,3.4225249 6.3834013,3.5902259 5.9628905,3.8330079 3.753027,5.1088731 2.9897596,7.9532225 4.2656248,10.163086 5.5414903,12.372949 8.3858391,13.134265 10.595703,11.858399 11.88374,11.114751 12.6798,9.8385222 12.867187,8.4658204 h 0.59375 v 1.0351562 h 1.087891 V 7.8466797 6.1923828 H 13.460937 V 7.2275391 H 12.86914 C 12.79182,6.6451886 12.602187,6.0692396 12.291015,5.5302735 12.052518,5.1171838 11.759458,4.7545342 11.425781,4.4462891 10.815483,3.8825075 10.069835,3.5007231 9.2773437,3.3251954 v -1.09375 z M 8.1894531,4.4462891 V 7.8466797 H 11.677734 C 11.678263,9.0193401 11.069917,10.156837 9.9765623,10.788086 8.3456291,11.729705 6.2775569,11.176832 5.3359373,9.5458985 4.3943178,7.9149658 4.9491455,5.8468929 6.580078,4.9052735 7.0897446,4.6110175 7.642251,4.4612247 8.1894531,4.4462891 Z M 1.4511718,7.8173828 V 9.2919922 H 2.8164062 3.0917968 C 2.9573747,8.806509 2.8942082,8.3102271 2.8984374,7.8173828 Z M 1.9999999,10.38379 1.4511718,11.122071 3.423828,13.768555 4.2031248,12.725586 3.5566405,11.858399 H 4.6914062 C 4.2743921,11.487498 3.9084507,11.045952 3.6152343,10.538086 c -0.029447,-0.051 -0.058363,-0.102721 -0.085937,-0.154296 z"
     style="baseline-shift:baseline;display:inline;overflow:visible;opacity:1;vector-effect:none;fill:#e0e0e0;stroke-dashoffset:7.77;enable-background:accumulate;stop-color:#000000;stop-opacity:1"
     id="path12" />
</svg>
