<?xml version="1.0" encoding="UTF-8" standalone="no"?>
<svg
   width="16"
   height="16"
   version="1.1"
   id="svg1"
   sodipodi:docname="Selection.svg"
   inkscape:version="1.4.3 (0d15f75042, 2025-12-25)"
   xmlns:inkscape="http://www.inkscape.org/namespaces/inkscape"
   xmlns:sodipodi="http://sodipodi.sourceforge.net/DTD/sodipodi-0.dtd"
   xmlns="http://www.w3.org/2000/svg"
   xmlns:svg="http://www.w3.org/2000/svg">
  <defs
     id="defs1" />
  <sodipodi:namedview
     id="namedview1"
     pagecolor="#505050"
     bordercolor="#eeeeee"
     borderopacity="1"
     inkscape:showpageshadow="0"
     inkscape:pageopacity="0"
     inkscape:pagecheckerboard="0"
     inkscape:deskcolor="#505050"
     inkscape:zoom="35.222757"
     inkscape:cx="9.3831383"
     inkscape:cy="10.490377"
     inkscape:window-width="1920"
     inkscape:window-height="1008"
     inkscape:window-x="0"
     inkscape:window-y="0"
     inkscape:window-maximized="1"
     inkscape:current-layer="svg1" />
  <path
     d="m 6.3417969,1.5878906 v 3.234375 H 7.4570312 V 2.703125 H 9.578125 V 1.5878906 Z m 5.6953121,0 V 2.703125 h 2.121094 v 2.1191406 h 1.115235 V 1.5878906 Z M 10.351563,4.4609375 9.3671875,5.78125 10.185547,6.8789062 H 8.3066406 V 8.1621094 H 12.589844 L 12.849609,7.8125 Z M 0.7265625,6.8789062 V 8.7460938 H 2.453125 3.9960938 5.4921875 V 6.8789062 Z m 5.6152344,0.013672 V 10.128906 H 9.578125 V 9.0117188 H 7.4570312 V 6.8925781 Z m 7.8164061,0 v 2.1191407 h -2.121094 v 1.1171872 h 3.236329 V 6.8925781 Z M 1.4199219,10.126953 0.7265625,11.060547 3.2246094,14.412109 4.2089844,13.09375 3.390625,11.994141 h 9.458984 V 10.976563 H 5.4921875 v -0.84961 z"
     style="baseline-shift:baseline;display:inline;overflow:visible;vector-effect:none;fill:#e0e0e0;stroke-width:0.806286;enable-background:accumulate;stop-color:#000000"
     id="path1" />
</svg>
