<?xml version="1.0" encoding="UTF-8" standalone="no"?>
<svg
   width="16"
   height="16"
   version="1.1"
   id="svg1"
   sodipodi:docname="Shuffle.svg"
   inkscape:version="1.4.3 (0d15f75042, 2025-12-25)"
   xmlns:inkscape="http://www.inkscape.org/namespaces/inkscape"
   xmlns:sodipodi="http://sodipodi.sourceforge.net/DTD/sodipodi-0.dtd"
   xmlns="http://www.w3.org/2000/svg"
   xmlns:svg="http://www.w3.org/2000/svg">
  <defs
     id="defs1" />
  <sodipodi:namedview
     id="namedview1"
     pagecolor="#505050"
     bordercolor="#eeeeee"
     borderopacity="1"
     inkscape:showpageshadow="0"
     inkscape:pageopacity="0"
     inkscape:pagecheckerboard="0"
     inkscape:deskcolor="#505050"
     inkscape:zoom="32"
     inkscape:cx="4.8125"
     inkscape:cy="9.296875"
     inkscape:window-width="1920"
     inkscape:window-height="1008"
     inkscape:window-x="0"
     inkscape:window-y="0"
     inkscape:window-maximized="1"
     inkscape:current-layer="svg1" />
  <path
     d="M 11.026367,2.5087893 9.6123045,3.9248049 10.42871,4.7412111 h -0.171875 c -1.1195627,0 -2.0574182,0.3754676 -2.7656242,0.8984376 C 6.7830047,6.1626186 6.2804626,6.7995859 5.823242,7.3623048 5.3660215,7.9250239 4.955353,8.4142432 4.5205076,8.7353518 4.0856623,9.0564604 3.6517006,9.2431643 2.9423827,9.2431643 H 1.7236326 v 1.9999997 h 1.2187501 c 1.119564,0 2.0574189,-0.375467 2.7656249,-0.898437 C 6.4162137,9.8217569 6.9187559,9.1847896 7.3759764,8.6220705 7.8331969,8.0593516 8.2458185,7.5701323 8.6806639,7.2490237 9.1155093,6.927915 9.5475186,6.7412112 10.256835,6.7412112 h 0.208985 l -0.8535155,0.8535156 1.4140625,1.4140625 3.25,-3.25 z M 1.7236326,4.7568361 v 2.0000001 h 1.2187501 c 0.1033043,0 0.200492,0.00396 0.2929687,0.011719 0.5424951,0.045515 0.9136414,0.2217511 1.2851562,0.4960938 0.016106,0.011893 0.032785,0.02476 0.048828,0.037109 C 4.7183914,7.1328125 4.8780077,6.9404788 5.0478514,6.7314455 5.2812629,6.4441769 5.5444515,6.1123346 5.8603514,5.7724612 5.8107034,5.7330588 5.7598141,5.6935297 5.7080076,5.6552737 4.9998016,5.1323037 4.0619467,4.7568361 2.9423827,4.7568361 Z M 8.6298827,8.7119143 C 8.4862774,8.8600129 8.3311939,9.0316101 8.151367,9.2529299 7.9138469,9.5452553 7.6466053,9.8853372 7.323242,10.231446 c 0.054984,0.04396 0.1103369,0.08635 0.1679688,0.128906 0.708206,0.52297 1.6460623,0.898437 2.7656242,0.898437 h 0.171875 l -0.8164055,0.816407 1.4140625,1.416015 3.25,-3.25 -0.986328,-0.9863281 c -0.365045,-2.54e-4 -0.730553,-8.61e-5 -1.095704,0 -0.646137,1.528e-4 -1.291914,8.09e-4 -1.9375,0.00391 -0.06234,0 -0.123394,-0.00106 -0.18164,-0.00391 C 9.9922626,9.2508268 9.9124538,9.2430683 9.8369139,9.2333987 9.3618516,9.1725875 9.0228763,9.0036812 8.6806639,8.7509768 8.6636128,8.7383854 8.6468695,8.7250168 8.6298827,8.7119143 Z"
     style="baseline-shift:baseline;display:inline;overflow:visible;vector-effect:none;fill:#e0e0e0;enable-background:accumulate;stop-color:#000000;stop-opacity:1"
     id="path36" />
</svg>
