<?xml version="1.0" encoding="UTF-8" standalone="no"?>
<svg
   width="16"
   height="16"
   version="1.1"
   id="svg1"
   sodipodi:docname="Zoom.svg"
   inkscape:version="1.4.3 (0d15f75042, 2025-12-25)"
   xmlns:inkscape="http://www.inkscape.org/namespaces/inkscape"
   xmlns:sodipodi="http://sodipodi.sourceforge.net/DTD/sodipodi-0.dtd"
   xmlns="http://www.w3.org/2000/svg"
   xmlns:svg="http://www.w3.org/2000/svg">
  <defs
     id="defs1" />
  <sodipodi:namedview
     id="namedview1"
     pagecolor="#505050"
     bordercolor="#eeeeee"
     borderopacity="1"
     inkscape:showpageshadow="0"
     inkscape:pageopacity="0"
     inkscape:pagecheckerboard="0"
     inkscape:deskcolor="#505050"
     inkscape:zoom="35.222757"
     inkscape:cx="4.9399882"
     inkscape:cy="8.3610719"
     inkscape:window-width="1920"
     inkscape:window-height="1008"
     inkscape:window-x="0"
     inkscape:window-y="0"
     inkscape:window-maximized="1"
     inkscape:current-layer="svg1" />
  <path
     d="M 6.0097656,1.0507812 A 4.9763737,4.9763737 0 0 0 1.0332031,6.0253906 4.9763737,4.9763737 0 0 0 5.9804687,11 c 0.110406,3.69e-4 0.2213153,-7.68e-4 0.3320313,-0.0078 a 4.9763737,4.9763737 0 0 0 0.6269531,-0.08008 c 0.624375,-0.121069 1.2390679,-0.365527 1.8125,-0.746093 l 0.00781,0.0078 4.3105474,4.310547 1.414062,-1.414062 -4.314453,-4.3144536 -0.0039,-0.00391 c 0.05797,-0.087541 0.109806,-0.1785932 0.162109,-0.2695312 a 4.9763737,4.9763737 0 0 0 0.07227,-0.1230469 c 0.04286,-0.07971 0.08065,-0.162185 0.11914,-0.2441406 A 4.9763737,4.9763737 0 0 0 10.568359,8 4.9763737,4.9763737 0 0 0 10.986328,6.0253906 4.9763737,4.9763737 0 0 0 8.9335938,2 4.9763737,4.9763737 0 0 0 6.0097656,1.0507812 Z m 0,1.9863282 A 2.9896898,2.9896898 0 0 1 9,6 c 3.5e-6,0.00254 -1.8e-6,0.00508 0,0.00781 2.1e-6,0.00326 1.01e-5,0.00674 0,0.00977 a 2.9896898,2.9896898 0 0 1 0,0.00781 2.9896898,2.9896898 0 0 1 -0.011719,0.2734375 C 8.9069861,7.2424583 8.4360893,7.9681013 7.7890625,8.4296875 A 2.9896898,2.9896898 0 0 1 6.0097656,9.015625 2.9896898,2.9896898 0 0 1 5.5527344,8.9804688 2.9896898,2.9896898 0 0 1 3.0214844,6.0253906 2.9896898,2.9896898 0 0 1 6.0097656,3.0371094 Z"
     style="fill:#e0e0e0"
     id="path3" />
</svg>
